{"title":"The Purge : Election year - 2016 - CAM - English - x264 - AAC -","uid":15275254,"size":733035472,"categoryP":"video","categoryS":"movies","magnet":"?xt=urn:btih:e3e017a7a86cae01435f4a044638be0968dd6348&amp;dn=The+Purge+%3A+Election+year+-+2016+-+CAM+-+English+-+x264+-+AAC+-+&amp;tr=udp%3A%2F%2Ftracker.leechers-paradise.org%3A6969&amp;tr=udp%3A%2F%2Fzer0day.ch%3A1337&amp;tr=udp%3A%2F%2Fopen.demonii.com%3A1337&amp;tr=udp%3A%2F%2Ftracker.coppersurfer.tk%3A6969&amp;tr=udp%3A%2F%2Fexodus.desync.com%3A6969","seeders":53,"leechers":8,"uploader":"makintos13","files":1,"time":1468294104,"description":"The Purge : Election year - 2016 - CAM - English - x264 - AAC - Makintos13\r\n\r\nscreens:\r\n \nhttps://imgmak.com/TwE\r\n \nhttps://imgmak.com/Twh\r\n \nhttps://imgmak.com/Twl\r\n\r\n \nhttps://imgmak.com/TwV\r\n \nhttps://imgmak.com/Twe\r\n \nhttps://imgmak.com/Twg\r\n\r\n\r\n\r\nFormat                                   : Matroska\r\nFormat version                           : Version 4 / Version 2\r\nFile size                                : 699 MiB\r\nDuration                                 : 1h 33mn\r\nOverall bit rate                         : 1 044 Kbps\r\n\r\n\r\nVideo\r\nID                                       : 2\r\nFormat                                   : AVC\r\nFormat/Info                              : Advanced Video Codec\r\nFormat profile                           :   \r\nFormat settings, CABAC                   : Yes\r\nFormat settings, ReFrames                : 4 frames\r\nCodec ID                                 : V_MPEG4/ISO/AVC\r\nDuration                                 : 1h 33mn\r\nBit rate                                 : 977 Kbps\r\nWidth                                    : 720 pixels\r\nHeight                                   : 376 pixels\r\nDisplay aspect ratio                     : 1.915\r\nFrame rate mode                          : Constant\r\nFrame rate                               : 23.976 (24000/1001) fps\r\nColor space                              : YUV\r\nChroma subsampling                       : 4:2:0\r\nBit depth                                : 8 bits\r\nScan type                                : Progressive\r\nBits/(Pixel*Frame)                       : 0.151\r\nStream size                              : 654 MiB (94%)\r\nForced                                   : No\r\n\r\nAudio\r\nID                                       : 1\r\nFormat                                   : AAC\r\nFormat/Info                              : Advanced Audio Codec\r\nFormat profile                           : LC\r\nCodec ID                                 : A_AAC\r\nDuration                                 : 1h 33mn\r\nBit rate                                 : 64.7 Kbps\r\nChannel(s)                               : 2 channels\r\nChannel positions                        : Front: L R\r\nSampling rate                            : 48.0 KHz\r\nFrame rate                               : 46.875 fps (1024 spf)\r\nCompression mode                         : Lossy\r\nDelay relative to video                  : 104ms\r\nStream size                              : 43.3 MiB (6%)\r\nTitle                                    : Stereo\r\nLanguage                                 : English\r\nDefault                                  : Yes\r\nForced                                   : No\r\n\r\nNote: \r\n\r\nFor those who are eager to watch","torrent":{"xt":"urn:btih:e3e017a7a86cae01435f4a044638be0968dd6348","amp;dn":"The+Purge+%3A+Election+year+-+2016+-+CAM+-+English+-+x264+-+AAC+-+","amp;tr":["udp%3A%2F%2Ftracker.leechers-paradise.org%3A6969","udp%3A%2F%2Fzer0day.ch%3A1337","udp%3A%2F%2Fopen.demonii.com%3A1337","udp%3A%2F%2Ftracker.coppersurfer.tk%3A6969","udp%3A%2F%2Fexodus.desync.com%3A6969"],"infoHash":"e3e017a7a86cae01435f4a044638be0968dd6348","infoHashBuffer":{"type":"Buffer","data":[227,224,23,167,168,108,174,1,67,95,74,4,70,56,190,9,104,221,99,72]},"announce":[],"urlList":[]}}